<svg width="33" height="32" viewBox="0 0 33 32" fill="none" xmlns="http://www.w3.org/2000/svg">
<g clip-path="url(#clip0_131_66)" filter="url(#filter0_d_131_66)">
<path d="M28.266 12.2764C28.266 11.4606 28.1999 10.6405 28.0588 9.83801H16.74V14.459H23.2217C22.9528 15.9493 22.0885 17.2677 20.823 18.1055V21.1039H24.69C26.9608 19.0138 28.266 15.9273 28.266 12.2764Z" fill="#4285F4"/>
<path d="M16.74 24.0008C19.9764 24.0008 22.7058 22.9382 24.6944 21.1039L20.8274 18.1055C19.7516 18.8375 18.3626 19.252 16.7444 19.252C13.6138 19.252 10.9593 17.1399 10.0069 14.3003H6.01648V17.3912C8.05359 21.4434 12.2028 24.0008 16.74 24.0008V24.0008Z" fill="#34A853"/>
<path d="M10.0025 14.3003C9.49986 12.81 9.49986 11.1962 10.0025 9.70581V6.61487H6.01649C4.31449 10.0056 4.31449 14.0005 6.01649 17.3913L10.0025 14.3003V14.3003Z" fill="#FBBC04"/>
<path d="M16.74 4.74966C18.4508 4.72321 20.1043 5.36697 21.3433 6.54867L24.7694 3.12262C22.6 1.08551 19.7207 -0.034466 16.74 0.000808666C12.2028 0.000808666 8.05359 2.55822 6.01648 6.61481L10.0025 9.70575C10.9505 6.86173 13.6093 4.74966 16.74 4.74966V4.74966Z" fill="#EA4335"/>
</g>
<defs>
<filter id="filter0_d_131_66" x="0.5" y="0" width="32" height="32" filterUnits="userSpaceOnUse" color-interpolation-filters="sRGB">
<feFlood flood-opacity="0" result="BackgroundImageFix"/>
<feColorMatrix in="SourceAlpha" type="matrix" values="0 0 0 0 0 0 0 0 0 0 0 0 0 0 0 0 0 0 127 0" result="hardAlpha"/>
<feOffset dy="4"/>
<feGaussianBlur stdDeviation="2"/>
<feComposite in2="hardAlpha" operator="out"/>
<feColorMatrix type="matrix" values="0 0 0 0 0 0 0 0 0 0 0 0 0 0 0 0 0 0 0.25 0"/>
<feBlend mode="normal" in2="BackgroundImageFix" result="effect1_dropShadow_131_66"/>
<feBlend mode="normal" in="SourceGraphic" in2="effect1_dropShadow_131_66" result="shape"/>
</filter>
<clipPath id="clip0_131_66">
<rect width="24" height="24" fill="white" transform="translate(4.5)"/>
</clipPath>
</defs>
</svg>
